<mxfile host="app.diagrams.net" agent="Mozilla/5.0 (Windows NT 10.0; Win64; x64) AppleWebKit/537.36 (KHTML, like Gecko) Chrome/134.0.0.0 Safari/537.36" version="26.1.1">
  <diagram name="Page-1" id="6D_nrCHjRvGys3_Q1Bkm">
    <mxGraphModel dx="794" dy="420" grid="1" gridSize="10" guides="1" tooltips="1" connect="1" arrows="1" fold="1" page="1" pageScale="1" pageWidth="850" pageHeight="1100" math="0" shadow="0">
      <root>
        <mxCell id="0" />
        <mxCell id="1" parent="0" />
        <mxCell id="bfVI8tIaOWNvq1gySEMc-12" value="" style="shape=process;whiteSpace=wrap;html=1;backgroundOutline=1;size=0.001610305958132045;fillColor=#dae8fc;strokeColor=#6c8ebf;" parent="1" vertex="1">
          <mxGeometry x="139" y="180" width="621" height="142" as="geometry" />
        </mxCell>
        <mxCell id="bfVI8tIaOWNvq1gySEMc-13" value="fetch the collection&amp;nbsp;" style="shape=step;perimeter=stepPerimeter;fixedSize=1;points=[];whiteSpace=wrap;html=1;fillColor=#fff2cc;strokeColor=#d6b656;" parent="1" vertex="1">
          <mxGeometry x="188" y="228" width="100" height="45" as="geometry" />
        </mxCell>
        <mxCell id="bfVI8tIaOWNvq1gySEMc-16" value="Mong&lt;span style=&quot;color: rgba(0, 0, 0, 0); font-family: monospace; font-size: 0px; text-align: start; text-wrap-mode: nowrap;&quot;&gt;%3CmxGraphModel%3E%3Croot%3E%3CmxCell%20id%3D%220%22%2F%3E%3CmxCell%20id%3D%221%22%20parent%3D%220%22%2F%3E%3CmxCell%20id%3D%222%22%20value%3D%22Map%20to%20Service%20Domain%20Objects%26amp%3Bnbsp%3B%22%20style%3D%22shape%3Dstep%3Bperimeter%3DstepPerimeter%3BfixedSize%3D1%3Bpoints%3D%5B%5D%3BwhiteSpace%3Dwrap%3Bhtml%3D1%3B%22%20vertex%3D%221%22%20parent%3D%221%22%3E%3CmxGeometry%20x%3D%22370%22%20y%3D%22150%22%20width%3D%22160%22%20height%3D%2257%22%20as%3D%22geometry%22%2F%3E%3C%2FmxCell%3E%3C%2Froot%3E%3C%2FmxGraphModel%3E&lt;/span&gt;o DB Collection&lt;div&gt;(source)&lt;/div&gt;" style="shape=cylinder3;whiteSpace=wrap;html=1;boundedLbl=1;backgroundOutline=1;size=15;fillColor=#d5e8d4;strokeColor=#82b366;" parent="1" vertex="1">
          <mxGeometry x="403" y="60" width="60" height="80" as="geometry" />
        </mxCell>
        <mxCell id="bfVI8tIaOWNvq1gySEMc-24" value="" style="edgeStyle=elbowEdgeStyle;elbow=horizontal;endArrow=classic;html=1;curved=0;rounded=0;endSize=8;startSize=8;entryX=0;entryY=0.5;entryDx=0;entryDy=0;" parent="1" edge="1">
          <mxGeometry width="50" height="50" relative="1" as="geometry">
            <mxPoint x="403" y="100" as="sourcePoint" />
            <mxPoint x="140" y="251" as="targetPoint" />
            <Array as="points">
              <mxPoint x="90" y="181" />
            </Array>
          </mxGeometry>
        </mxCell>
        <mxCell id="bfVI8tIaOWNvq1gySEMc-28" value="" style="edgeStyle=segmentEdgeStyle;endArrow=classic;html=1;curved=0;rounded=0;endSize=8;startSize=8;entryX=1;entryY=0;entryDx=0;entryDy=52.5;entryPerimeter=0;" parent="1" target="bfVI8tIaOWNvq1gySEMc-30" edge="1">
          <mxGeometry width="50" height="50" relative="1" as="geometry">
            <mxPoint x="760" y="250" as="sourcePoint" />
            <mxPoint x="579" y="399.5" as="targetPoint" />
            <Array as="points">
              <mxPoint x="779" y="251" />
              <mxPoint x="779" y="394" />
              <mxPoint x="469" y="394" />
            </Array>
          </mxGeometry>
        </mxCell>
        <mxCell id="bfVI8tIaOWNvq1gySEMc-30" value="Mong&lt;span style=&quot;color: rgba(0, 0, 0, 0); font-family: monospace; font-size: 0px; text-align: start; text-wrap-mode: nowrap;&quot;&gt;%3CmxGraphModel%3E%3Croot%3E%3CmxCell%20id%3D%220%22%2F%3E%3CmxCell%20id%3D%221%22%20parent%3D%220%22%2F%3E%3CmxCell%20id%3D%222%22%20value%3D%22Map%20to%20Service%20Domain%20Objects%26amp%3Bnbsp%3B%22%20style%3D%22shape%3Dstep%3Bperimeter%3DstepPerimeter%3BfixedSize%3D1%3Bpoints%3D%5B%5D%3BwhiteSpace%3Dwrap%3Bhtml%3D1%3B%22%20vertex%3D%221%22%20parent%3D%221%22%3E%3CmxGeometry%20x%3D%22370%22%20y%3D%22150%22%20width%3D%22160%22%20height%3D%2257%22%20as%3D%22geometry%22%2F%3E%3C%2FmxCell%3E%3C%2Froot%3E%3C%2FmxGraphModel%3E&lt;/span&gt;o DB Collection&lt;div&gt;(Target)&lt;/div&gt;" style="shape=cylinder3;whiteSpace=wrap;html=1;boundedLbl=1;backgroundOutline=1;size=15;fillColor=#d5e8d4;strokeColor=#82b366;" parent="1" vertex="1">
          <mxGeometry x="403" y="341" width="60" height="80" as="geometry" />
        </mxCell>
        <mxCell id="bfVI8tIaOWNvq1gySEMc-31" value="&lt;font style=&quot;font-size: 18px;&quot;&gt;Flink&amp;nbsp;&lt;/font&gt;&lt;span style=&quot;font-size: 18px; background-color: transparent; color: light-dark(rgb(0, 0, 0), rgb(255, 255, 255));&quot;&gt;Job&lt;/span&gt;" style="text;html=1;align=center;verticalAlign=middle;whiteSpace=wrap;rounded=0;" parent="1" vertex="1">
          <mxGeometry x="250" y="190" width="400" height="30" as="geometry" />
        </mxCell>
        <mxCell id="bfVI8tIaOWNvq1gySEMc-32" value="&lt;font style=&quot;font-size: 18px;&quot;&gt;Functional Service Domain Integeration&lt;/font&gt;" style="text;html=1;align=center;verticalAlign=middle;whiteSpace=wrap;rounded=0;" parent="1" vertex="1">
          <mxGeometry x="850" y="100" width="660" height="30" as="geometry" />
        </mxCell>
        <mxCell id="8KoSgygnGWi3_hWb67PQ-1" value="Form CR and BQ" style="shape=step;perimeter=stepPerimeter;whiteSpace=wrap;html=1;fixedSize=1;fillColor=#fff2cc;strokeColor=#d6b656;" vertex="1" parent="1">
          <mxGeometry x="280" y="229.75" width="143" height="42.5" as="geometry" />
        </mxCell>
        <mxCell id="8KoSgygnGWi3_hWb67PQ-2" value="split CR and BQ to&amp;nbsp;&lt;div&gt;entities with LDM&lt;/div&gt;" style="shape=step;perimeter=stepPerimeter;whiteSpace=wrap;html=1;fixedSize=1;fillColor=#fff2cc;strokeColor=#d6b656;" vertex="1" parent="1">
          <mxGeometry x="416" y="230.75" width="170" height="42.5" as="geometry" />
        </mxCell>
        <mxCell id="8KoSgygnGWi3_hWb67PQ-3" value="Invoke Xaap Generated Persistence Layer" style="shape=step;perimeter=stepPerimeter;whiteSpace=wrap;html=1;fixedSize=1;fillColor=#fff2cc;strokeColor=#d6b656;" vertex="1" parent="1">
          <mxGeometry x="573" y="230.75" width="166" height="42.5" as="geometry" />
        </mxCell>
      </root>
    </mxGraphModel>
  </diagram>
</mxfile>
